<svg xmlns="http://www.w3.org/2000/svg" viewBox="0 0 1024 1024" role="img" aria-label="MappedSky app icon">
  <defs>
    <radialGradient id="bg" cx="50%" cy="35%" r="80%">
      <stop offset="0%" stop-color="#1a2148"></stop>
      <stop offset="100%" stop-color="#06091a"></stop>
    </radialGradient>
  </defs>
  <rect width="1024" height="1024" rx="220" fill="url(#bg)"></rect>
  
  <circle cx="242" cy="484" r="3.2" fill="#f0f3ff" opacity="0.53"></circle>
  <circle cx="362" cy="463" r="3.8" fill="#f0f3ff" opacity="0.62"></circle>
  <circle cx="482" cy="442" r="1.9" fill="#f0f3ff" opacity="0.32"></circle>
  <circle cx="602" cy="422" r="2.5" fill="#f0f3ff" opacity="0.41"></circle>
  <circle cx="723" cy="401" r="3.1" fill="#f0f3ff" opacity="0.50"></circle>
  <circle cx="843" cy="380" r="3.7" fill="#f0f3ff" opacity="0.60"></circle>
  <circle cx="963" cy="359" r="1.8" fill="#f0f3ff" opacity="0.29"></circle>
  <circle cx="179" cy="338" r="2.4" fill="#f0f3ff" opacity="0.39"></circle>
  <circle cx="300" cy="318" r="3.0" fill="#f0f3ff" opacity="0.48"></circle>
  <circle cx="420" cy="297" r="3.6" fill="#f0f3ff" opacity="0.58"></circle>
  <circle cx="540" cy="276" r="1.6" fill="#f0f3ff" opacity="0.27"></circle>
  <circle cx="660" cy="255" r="2.2" fill="#f0f3ff" opacity="0.37"></circle>
  <circle cx="780" cy="234" r="2.8" fill="#f0f3ff" opacity="0.46"></circle>
  <circle cx="901" cy="214" r="3.4" fill="#f0f3ff" opacity="0.56"></circle>
  <circle cx="117" cy="193" r="1.5" fill="#f0f3ff" opacity="0.25"></circle>
  <circle cx="237" cy="172" r="2.1" fill="#f0f3ff" opacity="0.35"></circle>
  <circle cx="357" cy="151" r="2.7" fill="#f0f3ff" opacity="0.44"></circle>
  <circle cx="478" cy="131" r="3.3" fill="#f0f3ff" opacity="0.54"></circle>
  <g transform="translate(192, 192) scale(6.4)">
    <g transform="">
    <g stroke="#f0f3ffcc" stroke-width="1.8" stroke-linecap="round" fill="none">
    <line x1="20" y1="70" x2="50" y2="22"></line>
    <line x1="50" y1="22" x2="80" y2="54"></line>
    <line x1="80" y1="54" x2="66" y2="80"></line>
    </g>
    <circle cx="20" cy="70" r="4" fill="#f0f3ff"></circle>
    <circle cx="50" cy="22" r="7.5" fill="#9fc6ff"></circle>
    <circle cx="80" cy="54" r="4" fill="#f0f3ff"></circle>
    <circle cx="66" cy="80" r="3" fill="#f0f3ff"></circle>
  </g>
    <circle cx="50" cy="22" r="13" fill="#9fc6ff" opacity="0.18"></circle>
  </g>
</svg>